<svg xmlns="http://www.w3.org/2000/svg" viewBox="0 0 512 512" style="height: 512px; width: 512px;">
    <path d="M0 0h512v512H0z" fill="#000" fill-opacity="0"></path>
    <g class="" transform="translate(0,0)" style="touch-action: none;">
        <g>
            <path d="M91.033 22.14L91.033 106.508L137.467 164.068L137.467 180.234L236.397 224.364L263.687 190.059L329.587 194.069L329.587 164.069L376.02 106.507L376.02 22.137L327.104 22.137L327.104 61.933L297.33 61.933L297.33 22.14L247.88 22.14L247.88 61.934L218.64 61.934L218.64 22.14L169.19 22.14L169.19 61.934L139.947 61.934L139.947 22.14L91.033 22.14Z"
                  class="" fill="#fff" fill-opacity="1"></path>
            <path d="M137.467 200.697L137.467 395.867L107.587 395.867L85.795 490.562L381.258 490.562L359.468 395.867L329.586 395.867L329.586 370.02L290.866 345.95L267.154 375.242L295.586 400.979L283.043 414.833L241.5 377.23L274.87 336.008L183.22 279.035L216.508 235.953L137.468 200.697Z"
                  class="" fill="#fff" fill-opacity="1"></path>
            <path d="M292.48 219.807L311.52 254.801L342.525 249.396L325.238 219.808L292.48 219.808Z" class=""
                  fill="#fff" fill-opacity="1"></path>
            <path d="M359.162 229.895L376.455 304.422L432.008 306.49L418.566 248.523L359.162 229.895Z" class="selected"
                  fill="#fff" fill-opacity="1"></path>
            <path d="M223.692 257.223L210.658 274.088L248.051 297.332L266.218 276.722L223.692 257.222Z" class=""
                  fill="#fff" fill-opacity="1"></path>
            <path d="M296.807 270.279L264.147 307.335L329.587 348.015L329.587 298.2L296.807 270.28Z" class=""
                  fill="#fff" fill-opacity="1"></path>
            <path d="M381.961 322.024L376.801 351.608L410.291 369.766L410.198 338.508L381.962 322.023Z" class=""
                  fill="#fff" fill-opacity="1"></path>
            <path d="M461.871 328.952L438.798 352.149L447.495 385.255L473.212 367.175L461.872 328.952Z" class=""
                  fill="#fff" fill-opacity="1"></path>
            <path d="M396.021 397.944L385.051 434.921L409.931 452.411L418.345 420.386L396.022 397.944Z" class=""
                  fill="#fff" fill-opacity="1"></path>
        </g>
    </g>
</svg>
